<?xml version="1.0" encoding="UTF-8" standalone="no"?>
<!DOCTYPE svg PUBLIC "-//W3C//DTD SVG 1.1//EN"
 "http://www.w3.org/Graphics/SVG/1.1/DTD/svg11.dtd">
<!-- Generated by graphviz version 2.40.1 (0)
 -->
<!-- Title: dependencies Pages: 1 -->
<svg width="586pt" height="284pt"
 viewBox="0.00 0.00 586.00 284.00" xmlns="http://www.w3.org/2000/svg" xmlns:xlink="http://www.w3.org/1999/xlink">
<g id="graph0" class="graph" transform="scale(1 1) rotate(0) translate(4 280)">
<title>dependencies</title>
<polygon fill="#ffffff" stroke="transparent" points="-4,4 -4,-280 582,-280 582,4 -4,4"/>
<!-- core -->
<g id="node1" class="node">
<title>core</title>
<g id="a_node1"><a xlink:href="https://github.com/Kitware/SMQTK-Core" xlink:title="SMQTK&#45;Core">
<polygon fill="#d3d3d3" stroke="#000000" points="576,-276 0,-276 0,-240 576,-240 576,-276"/>
<text text-anchor="middle" x="288" y="-254.3" font-family="Times,serif" font-size="14.00" fill="#000000">SMQTK&#45;Core</text>
</a>
</g>
</g>
<!-- dataprovider -->
<g id="node2" class="node">
<title>dataprovider</title>
<g id="a_node2"><a xlink:href="https://github.com/Kitware/SMQTK-Dataprovider" xlink:title="SMQTK&#45;Dataprovider">
<polygon fill="#d3d3d3" stroke="#000000" points="576,-216 0,-216 0,-180 576,-180 576,-216"/>
<text text-anchor="middle" x="288" y="-194.3" font-family="Times,serif" font-size="14.00" fill="#000000">SMQTK&#45;Dataprovider</text>
</a>
</g>
</g>
<!-- dataprovider&#45;&gt;core -->
<g id="edge1" class="edge">
<title>dataprovider&#45;&gt;core</title>
<path fill="none" stroke="#000000" d="M288,-216.002C288,-216.002 288,-229.5954 288,-229.5954"/>
<polygon fill="#000000" stroke="#000000" points="284.5001,-229.5953 288,-239.5954 291.5001,-229.5954 284.5001,-229.5953"/>
</g>
<!-- imageio -->
<g id="node3" class="node">
<title>imageio</title>
<g id="a_node3"><a xlink:href="https://github.com/Kitware/SMQTK-Image-IO" xlink:title="SMQTK&#45;Image&#45;IO">
<polygon fill="#d3d3d3" stroke="#000000" points="288,-156 0,-156 0,-120 288,-120 288,-156"/>
<text text-anchor="middle" x="144" y="-134.3" font-family="Times,serif" font-size="14.00" fill="#000000">SMQTK&#45;Image&#45;IO</text>
</a>
</g>
</g>
<!-- imageio&#45;&gt;dataprovider -->
<g id="edge2" class="edge">
<title>imageio&#45;&gt;dataprovider</title>
<path fill="none" stroke="#000000" d="M144,-156.002C144,-156.002 144,-169.5954 144,-169.5954"/>
<polygon fill="#000000" stroke="#000000" points="140.5001,-169.5953 144,-179.5954 147.5001,-169.5954 140.5001,-169.5953"/>
</g>
<!-- descriptors -->
<g id="node4" class="node">
<title>descriptors</title>
<g id="a_node4"><a xlink:href="https://github.com/Kitware/SMQTK-Descriptors" xlink:title="SMQTK&#45;Descriptors">
<polygon fill="#d3d3d3" stroke="#000000" points="577,-156 289,-156 289,-120 577,-120 577,-156"/>
<text text-anchor="middle" x="433" y="-134.3" font-family="Times,serif" font-size="14.00" fill="#000000">SMQTK&#45;Descriptors</text>
</a>
</g>
</g>
<!-- descriptors&#45;&gt;dataprovider -->
<g id="edge3" class="edge">
<title>descriptors&#45;&gt;dataprovider</title>
<path fill="none" stroke="#000000" d="M432.5,-156.002C432.5,-156.002 432.5,-169.5954 432.5,-169.5954"/>
<polygon fill="#000000" stroke="#000000" points="429.0001,-169.5953 432.5,-179.5954 436.0001,-169.5954 429.0001,-169.5953"/>
</g>
<!-- classifier -->
<g id="node5" class="node">
<title>classifier</title>
<g id="a_node5"><a xlink:href="https://github.com/Kitware/SMQTK-Classifier" xlink:title="SMQTK&#45;Classifier">
<polygon fill="#d3d3d3" stroke="#000000" points="432.5,-96 287.5,-96 287.5,-60 432.5,-60 432.5,-96"/>
<text text-anchor="middle" x="360" y="-74.3" font-family="Times,serif" font-size="14.00" fill="#000000">SMQTK&#45;Classifier</text>
</a>
</g>
</g>
<!-- classifier&#45;&gt;descriptors -->
<g id="edge5" class="edge">
<title>classifier&#45;&gt;descriptors</title>
<path fill="none" stroke="#000000" d="M360.75,-96.002C360.75,-96.002 360.75,-109.5954 360.75,-109.5954"/>
<polygon fill="#000000" stroke="#000000" points="357.2501,-109.5953 360.75,-119.5954 364.2501,-109.5954 357.2501,-109.5953"/>
</g>
<!-- indexing -->
<g id="node6" class="node">
<title>indexing</title>
<g id="a_node6"><a xlink:href="https://github.com/Kitware/SMQTK-Indexing" xlink:title="SMQTK&#45;Indexing">
<polygon fill="#d3d3d3" stroke="#000000" points="578,-96 434,-96 434,-60 578,-60 578,-96"/>
<text text-anchor="middle" x="506" y="-74.3" font-family="Times,serif" font-size="14.00" fill="#000000">SMQTK&#45;Indexing</text>
</a>
</g>
</g>
<!-- indexing&#45;&gt;descriptors -->
<g id="edge4" class="edge">
<title>indexing&#45;&gt;descriptors</title>
<path fill="none" stroke="#000000" d="M505.5,-96.002C505.5,-96.002 505.5,-109.5954 505.5,-109.5954"/>
<polygon fill="#000000" stroke="#000000" points="502.0001,-109.5953 505.5,-119.5954 509.0001,-109.5954 502.0001,-109.5953"/>
</g>
<!-- relevancy -->
<g id="node7" class="node">
<title>relevancy</title>
<g id="a_node7"><a xlink:href="https://github.com/Kitware/SMQTK-Relevancy" xlink:title="SMQTK&#45;Relevancy">
<polygon fill="#d3d3d3" stroke="#000000" points="577,-36 289,-36 289,0 577,0 577,-36"/>
<text text-anchor="middle" x="433" y="-14.3" font-family="Times,serif" font-size="14.00" fill="#000000">SMQTK&#45;Relevancy</text>
</a>
</g>
</g>
<!-- relevancy&#45;&gt;classifier -->
<g id="edge6" class="edge">
<title>relevancy&#45;&gt;classifier</title>
<path fill="none" stroke="#000000" d="M360.75,-36.002C360.75,-36.002 360.75,-49.5954 360.75,-49.5954"/>
<polygon fill="#000000" stroke="#000000" points="357.2501,-49.5953 360.75,-59.5954 364.2501,-49.5954 357.2501,-49.5953"/>
</g>
<!-- relevancy&#45;&gt;indexing -->
<g id="edge7" class="edge">
<title>relevancy&#45;&gt;indexing</title>
<path fill="none" stroke="#000000" d="M505.5,-36.002C505.5,-36.002 505.5,-49.5954 505.5,-49.5954"/>
<polygon fill="#000000" stroke="#000000" points="502.0001,-49.5953 505.5,-59.5954 509.0001,-49.5954 502.0001,-49.5953"/>
</g>
</g>
</svg>
