<?xml version="1.0" encoding="UTF-8" standalone="no"?>
<!DOCTYPE svg PUBLIC "-//W3C//DTD SVG 1.1//EN"
 "http://www.w3.org/Graphics/SVG/1.1/DTD/svg11.dtd">
<!-- Generated by graphviz version 2.40.1 (0)
 -->
<!-- Title: dependencies Pages: 1 -->
<svg width="585pt" height="332pt"
 viewBox="0.00 0.00 585.00 332.00" xmlns="http://www.w3.org/2000/svg" xmlns:xlink="http://www.w3.org/1999/xlink">
<g id="graph0" class="graph" transform="scale(1 1) rotate(0) translate(4 328)">
<title>dependencies</title>
<polygon fill="#ffffff" stroke="transparent" points="-4,4 -4,-328 581,-328 581,4 -4,4"/>
<!-- core -->
<g id="node1" class="node">
<title>core</title>
<g id="a_node1"><a xlink:href="https://github.com/Kitware/SMQTK-Core" xlink:title="SMQTK&#45;Core">
<polygon fill="#d3d3d3" stroke="#000000" points="576,-324 0,-324 0,-288 576,-288 576,-324"/>
<text text-anchor="middle" x="288" y="-302.3" font-family="Times,serif" font-size="14.00" fill="#000000">SMQTK&#45;Core</text>
</a>
</g>
</g>
<!-- dataprovider -->
<g id="node2" class="node">
<title>dataprovider</title>
<g id="a_node2"><a xlink:href="https://github.com/Kitware/SMQTK-Dataprovider" xlink:title="SMQTK&#45;Dataprovider">
<polygon fill="#d3d3d3" stroke="#000000" points="576,-252 0,-252 0,-216 576,-216 576,-252"/>
<text text-anchor="middle" x="288" y="-230.3" font-family="Times,serif" font-size="14.00" fill="#000000">SMQTK&#45;Dataprovider</text>
</a>
</g>
</g>
<!-- dataprovider&#45;&gt;core -->
<g id="edge1" class="edge">
<title>dataprovider&#45;&gt;core</title>
<path fill="none" stroke="#000000" d="M288,-252.1686C288,-252.1686 288,-277.5867 288,-277.5867"/>
<polygon fill="#000000" stroke="#000000" points="284.5001,-277.5867 288,-287.5867 291.5001,-277.5868 284.5001,-277.5867"/>
</g>
<!-- imageio -->
<g id="node3" class="node">
<title>imageio</title>
<g id="a_node3"><a xlink:href="https://github.com/Kitware/SMQTK-Image-IO" xlink:title="SMQTK&#45;Image&#45;IO">
<polygon fill="#d3d3d3" stroke="#000000" points="288,-180 0,-180 0,-144 288,-144 288,-180"/>
<text text-anchor="middle" x="144" y="-158.3" font-family="Times,serif" font-size="14.00" fill="#000000">SMQTK&#45;Image&#45;IO</text>
</a>
</g>
</g>
<!-- imageio&#45;&gt;dataprovider -->
<g id="edge2" class="edge">
<title>imageio&#45;&gt;dataprovider</title>
<path fill="none" stroke="#000000" d="M144,-180.1686C144,-180.1686 144,-205.5867 144,-205.5867"/>
<polygon fill="#000000" stroke="#000000" points="140.5001,-205.5867 144,-215.5867 147.5001,-205.5868 140.5001,-205.5867"/>
</g>
<!-- descriptors -->
<g id="node4" class="node">
<title>descriptors</title>
<g id="a_node4"><a xlink:href="https://github.com/Kitware/SMQTK-Descriptors" xlink:title="SMQTK&#45;Descriptors">
<polygon fill="#d3d3d3" stroke="#000000" points="577,-180 289,-180 289,-144 577,-144 577,-180"/>
<text text-anchor="middle" x="433" y="-158.3" font-family="Times,serif" font-size="14.00" fill="#000000">SMQTK&#45;Descriptors</text>
</a>
</g>
</g>
<!-- descriptors&#45;&gt;dataprovider -->
<g id="edge3" class="edge">
<title>descriptors&#45;&gt;dataprovider</title>
<path fill="none" stroke="#000000" d="M432.5,-180.1686C432.5,-180.1686 432.5,-205.5867 432.5,-205.5867"/>
<polygon fill="#000000" stroke="#000000" points="429.0001,-205.5867 432.5,-215.5867 436.0001,-205.5868 429.0001,-205.5867"/>
</g>
<!-- classifier -->
<g id="node5" class="node">
<title>classifier</title>
<g id="a_node5"><a xlink:href="https://github.com/Kitware/SMQTK-Classifier" xlink:title="SMQTK&#45;Classifier">
<polygon fill="#d3d3d3" stroke="#000000" points="414.5,-108 269.5,-108 269.5,-72 414.5,-72 414.5,-108"/>
<text text-anchor="middle" x="342" y="-86.3" font-family="Times,serif" font-size="14.00" fill="#000000">SMQTK&#45;Classifier</text>
</a>
</g>
</g>
<!-- classifier&#45;&gt;descriptors -->
<g id="edge7" class="edge">
<title>classifier&#45;&gt;descriptors</title>
<path fill="none" stroke="#000000" d="M351.75,-108.1686C351.75,-108.1686 351.75,-133.5867 351.75,-133.5867"/>
<polygon fill="#000000" stroke="#000000" points="348.2501,-133.5867 351.75,-143.5867 355.2501,-133.5868 348.2501,-133.5867"/>
</g>
<!-- indexing -->
<g id="node6" class="node">
<title>indexing</title>
<g id="a_node6"><a xlink:href="https://github.com/Kitware/SMQTK-Indexing" xlink:title="SMQTK&#45;Indexing">
<polygon fill="#d3d3d3" stroke="#000000" points="560,-108 416,-108 416,-72 560,-72 560,-108"/>
<text text-anchor="middle" x="488" y="-86.3" font-family="Times,serif" font-size="14.00" fill="#000000">SMQTK&#45;Indexing</text>
</a>
</g>
</g>
<!-- indexing&#45;&gt;descriptors -->
<g id="edge6" class="edge">
<title>indexing&#45;&gt;descriptors</title>
<path fill="none" stroke="#000000" d="M488,-108.1686C488,-108.1686 488,-133.5867 488,-133.5867"/>
<polygon fill="#000000" stroke="#000000" points="484.5001,-133.5867 488,-143.5867 491.5001,-133.5868 484.5001,-133.5867"/>
</g>
<!-- detection -->
<g id="node7" class="node">
<title>detection</title>
<g id="a_node7"><a xlink:href="https://github.com/Kitware/SMQTK-Detection" xlink:title="SMQTK&#45;Detection">
<polygon fill="#d3d3d3" stroke="#000000" points="252,-36 36,-36 36,0 252,0 252,-36"/>
<text text-anchor="middle" x="144" y="-14.3" font-family="Times,serif" font-size="14.00" fill="#000000">SMQTK&#45;Detection</text>
</a>
</g>
</g>
<!-- detection&#45;&gt;imageio -->
<g id="edge4" class="edge">
<title>detection&#45;&gt;imageio</title>
<path fill="none" stroke="#000000" d="M144,-36.2377C144,-36.2377 144,-133.9104 144,-133.9104"/>
<polygon fill="#000000" stroke="#000000" points="140.5001,-133.9103 144,-143.9104 147.5001,-133.9104 140.5001,-133.9103"/>
</g>
<!-- detection&#45;&gt;classifier -->
<g id="edge5" class="edge">
<title>detection&#45;&gt;classifier</title>
<path fill="none" stroke="#000000" d="M252.2052,-18C268.1011,-18 279.25,-18 279.25,-18 279.25,-18 279.25,-61.8314 279.25,-61.8314"/>
<polygon fill="#000000" stroke="#000000" points="275.7501,-61.8313 279.25,-71.8314 282.7501,-61.8314 275.7501,-61.8313"/>
</g>
<!-- relevancy -->
<g id="node8" class="node">
<title>relevancy</title>
<g id="a_node8"><a xlink:href="https://github.com/Kitware/SMQTK-Relevancy" xlink:title="SMQTK&#45;Relevancy">
<polygon fill="#d3d3d3" stroke="#000000" points="505,-36 289,-36 289,0 505,0 505,-36"/>
<text text-anchor="middle" x="397" y="-14.3" font-family="Times,serif" font-size="14.00" fill="#000000">SMQTK&#45;Relevancy</text>
</a>
</g>
</g>
<!-- relevancy&#45;&gt;classifier -->
<g id="edge8" class="edge">
<title>relevancy&#45;&gt;classifier</title>
<path fill="none" stroke="#000000" d="M351.75,-36.1686C351.75,-36.1686 351.75,-61.5867 351.75,-61.5867"/>
<polygon fill="#000000" stroke="#000000" points="348.2501,-61.5867 351.75,-71.5867 355.2501,-61.5868 348.2501,-61.5867"/>
</g>
<!-- relevancy&#45;&gt;indexing -->
<g id="edge9" class="edge">
<title>relevancy&#45;&gt;indexing</title>
<path fill="none" stroke="#000000" d="M460.5,-36.1686C460.5,-36.1686 460.5,-61.5867 460.5,-61.5867"/>
<polygon fill="#000000" stroke="#000000" points="457.0001,-61.5867 460.5,-71.5867 464.0001,-61.5868 457.0001,-61.5867"/>
</g>
</g>
</svg>
