<?xml version="1.0" encoding="UTF-8" standalone="no"?>
<!DOCTYPE svg PUBLIC "-//W3C//DTD SVG 1.1//EN"
 "http://www.w3.org/Graphics/SVG/1.1/DTD/svg11.dtd">
<!-- Generated by graphviz version 2.40.1 (0)
 -->
<!-- Title: dependencies Pages: 1 -->
<svg width="586pt" height="404pt"
 viewBox="0.00 0.00 586.00 404.00" xmlns="http://www.w3.org/2000/svg" xmlns:xlink="http://www.w3.org/1999/xlink">
<g id="graph0" class="graph" transform="scale(1 1) rotate(0) translate(4 400)">
<title>dependencies</title>
<polygon fill="#ffffff" stroke="transparent" points="-4,4 -4,-400 582,-400 582,4 -4,4"/>
<!-- core -->
<g id="node1" class="node">
<title>core</title>
<g id="a_node1"><a xlink:href="https://github.com/Kitware/SMQTK-Core" xlink:title="SMQTK&#45;Core">
<polygon fill="#d3d3d3" stroke="#000000" points="576,-396 0,-396 0,-360 576,-360 576,-396"/>
<text text-anchor="middle" x="288" y="-374.3" font-family="Times,serif" font-size="14.00" fill="#000000">SMQTK&#45;Core</text>
</a>
</g>
</g>
<!-- dataprovider -->
<g id="node2" class="node">
<title>dataprovider</title>
<g id="a_node2"><a xlink:href="https://github.com/Kitware/SMQTK-Dataprovider" xlink:title="SMQTK&#45;Dataprovider">
<polygon fill="#d3d3d3" stroke="#000000" points="576,-324 0,-324 0,-288 576,-288 576,-324"/>
<text text-anchor="middle" x="288" y="-302.3" font-family="Times,serif" font-size="14.00" fill="#000000">SMQTK&#45;Dataprovider</text>
</a>
</g>
</g>
<!-- dataprovider&#45;&gt;core -->
<g id="edge1" class="edge">
<title>dataprovider&#45;&gt;core</title>
<path fill="none" stroke="#000000" d="M288,-324.1686C288,-324.1686 288,-349.5867 288,-349.5867"/>
<polygon fill="#000000" stroke="#000000" points="284.5001,-349.5867 288,-359.5867 291.5001,-349.5868 284.5001,-349.5867"/>
</g>
<!-- imageio -->
<g id="node3" class="node">
<title>imageio</title>
<g id="a_node3"><a xlink:href="https://github.com/Kitware/SMQTK-Image-IO" xlink:title="SMQTK&#45;Image&#45;IO">
<polygon fill="#d3d3d3" stroke="#000000" points="288,-252 0,-252 0,-216 288,-216 288,-252"/>
<text text-anchor="middle" x="144" y="-230.3" font-family="Times,serif" font-size="14.00" fill="#000000">SMQTK&#45;Image&#45;IO</text>
</a>
</g>
</g>
<!-- imageio&#45;&gt;dataprovider -->
<g id="edge2" class="edge">
<title>imageio&#45;&gt;dataprovider</title>
<path fill="none" stroke="#000000" d="M144,-252.1686C144,-252.1686 144,-277.5867 144,-277.5867"/>
<polygon fill="#000000" stroke="#000000" points="140.5001,-277.5867 144,-287.5867 147.5001,-277.5868 140.5001,-277.5867"/>
</g>
<!-- descriptors -->
<g id="node4" class="node">
<title>descriptors</title>
<g id="a_node4"><a xlink:href="https://github.com/Kitware/SMQTK-Descriptors" xlink:title="SMQTK&#45;Descriptors">
<polygon fill="#d3d3d3" stroke="#000000" points="577,-252 289,-252 289,-216 577,-216 577,-252"/>
<text text-anchor="middle" x="433" y="-230.3" font-family="Times,serif" font-size="14.00" fill="#000000">SMQTK&#45;Descriptors</text>
</a>
</g>
</g>
<!-- descriptors&#45;&gt;dataprovider -->
<g id="edge3" class="edge">
<title>descriptors&#45;&gt;dataprovider</title>
<path fill="none" stroke="#000000" d="M432.5,-252.1686C432.5,-252.1686 432.5,-277.5867 432.5,-277.5867"/>
<polygon fill="#000000" stroke="#000000" points="429.0001,-277.5867 432.5,-287.5867 436.0001,-277.5868 429.0001,-277.5867"/>
</g>
<!-- classifier -->
<g id="node5" class="node">
<title>classifier</title>
<g id="a_node5"><a xlink:href="https://github.com/Kitware/SMQTK-Classifier" xlink:title="SMQTK&#45;Classifier">
<polygon fill="#d3d3d3" stroke="#000000" points="432.5,-180 287.5,-180 287.5,-144 432.5,-144 432.5,-180"/>
<text text-anchor="middle" x="360" y="-158.3" font-family="Times,serif" font-size="14.00" fill="#000000">SMQTK&#45;Classifier</text>
</a>
</g>
</g>
<!-- classifier&#45;&gt;descriptors -->
<g id="edge7" class="edge">
<title>classifier&#45;&gt;descriptors</title>
<path fill="none" stroke="#000000" d="M360.75,-180.1686C360.75,-180.1686 360.75,-205.5867 360.75,-205.5867"/>
<polygon fill="#000000" stroke="#000000" points="357.2501,-205.5867 360.75,-215.5867 364.2501,-205.5868 357.2501,-205.5867"/>
</g>
<!-- indexing -->
<g id="node6" class="node">
<title>indexing</title>
<g id="a_node6"><a xlink:href="https://github.com/Kitware/SMQTK-Indexing" xlink:title="SMQTK&#45;Indexing">
<polygon fill="#d3d3d3" stroke="#000000" points="578,-180 434,-180 434,-144 578,-144 578,-180"/>
<text text-anchor="middle" x="506" y="-158.3" font-family="Times,serif" font-size="14.00" fill="#000000">SMQTK&#45;Indexing</text>
</a>
</g>
</g>
<!-- indexing&#45;&gt;descriptors -->
<g id="edge6" class="edge">
<title>indexing&#45;&gt;descriptors</title>
<path fill="none" stroke="#000000" d="M505.5,-180.1686C505.5,-180.1686 505.5,-205.5867 505.5,-205.5867"/>
<polygon fill="#000000" stroke="#000000" points="502.0001,-205.5867 505.5,-215.5867 509.0001,-205.5868 502.0001,-205.5867"/>
</g>
<!-- detection -->
<g id="node7" class="node">
<title>detection</title>
<g id="a_node7"><a xlink:href="https://github.com/Kitware/SMQTK-Detection" xlink:title="SMQTK&#45;Detection">
<polygon fill="#d3d3d3" stroke="#000000" points="252,-108 36,-108 36,-72 252,-72 252,-108"/>
<text text-anchor="middle" x="144" y="-86.3" font-family="Times,serif" font-size="14.00" fill="#000000">SMQTK&#45;Detection</text>
</a>
</g>
</g>
<!-- detection&#45;&gt;imageio -->
<g id="edge4" class="edge">
<title>detection&#45;&gt;imageio</title>
<path fill="none" stroke="#000000" d="M144,-108.2377C144,-108.2377 144,-205.9104 144,-205.9104"/>
<polygon fill="#000000" stroke="#000000" points="140.5001,-205.9103 144,-215.9104 147.5001,-205.9104 140.5001,-205.9103"/>
</g>
<!-- detection&#45;&gt;classifier -->
<g id="edge5" class="edge">
<title>detection&#45;&gt;classifier</title>
<path fill="none" stroke="#000000" d="M252.1038,-90C283.8574,-90 310.25,-90 310.25,-90 310.25,-90 310.25,-133.8314 310.25,-133.8314"/>
<polygon fill="#000000" stroke="#000000" points="306.7501,-133.8313 310.25,-143.8314 313.7501,-133.8314 306.7501,-133.8313"/>
</g>
<!-- relevancy -->
<g id="node8" class="node">
<title>relevancy</title>
<g id="a_node8"><a xlink:href="https://github.com/Kitware/SMQTK-Relevancy" xlink:title="SMQTK&#45;Relevancy">
<polygon fill="#d3d3d3" stroke="#000000" points="483,-108 333,-108 333,-72 483,-72 483,-108"/>
<text text-anchor="middle" x="408" y="-86.3" font-family="Times,serif" font-size="14.00" fill="#000000">SMQTK&#45;Relevancy</text>
</a>
</g>
</g>
<!-- relevancy&#45;&gt;classifier -->
<g id="edge8" class="edge">
<title>relevancy&#45;&gt;classifier</title>
<path fill="none" stroke="#000000" d="M382.75,-108.1686C382.75,-108.1686 382.75,-133.5867 382.75,-133.5867"/>
<polygon fill="#000000" stroke="#000000" points="379.2501,-133.5867 382.75,-143.5867 386.2501,-133.5868 379.2501,-133.5867"/>
</g>
<!-- iqr -->
<g id="node9" class="node">
<title>iqr</title>
<g id="a_node9"><a xlink:href="https://github.com/Kitware/SMQTK-IQR" xlink:title="SMQTK&#45;IQR">
<polygon fill="#d3d3d3" stroke="#000000" points="554,-36 338,-36 338,0 554,0 554,-36"/>
<text text-anchor="middle" x="446" y="-14.3" font-family="Times,serif" font-size="14.00" fill="#000000">SMQTK&#45;IQR</text>
</a>
</g>
</g>
<!-- iqr&#45;&gt;indexing -->
<g id="edge10" class="edge">
<title>iqr&#45;&gt;indexing</title>
<path fill="none" stroke="#000000" d="M518.5,-36.2377C518.5,-36.2377 518.5,-133.9104 518.5,-133.9104"/>
<polygon fill="#000000" stroke="#000000" points="515.0001,-133.9103 518.5,-143.9104 522.0001,-133.9104 515.0001,-133.9103"/>
</g>
<!-- iqr&#45;&gt;relevancy -->
<g id="edge9" class="edge">
<title>iqr&#45;&gt;relevancy</title>
<path fill="none" stroke="#000000" d="M410.5,-36.1686C410.5,-36.1686 410.5,-61.5867 410.5,-61.5867"/>
<polygon fill="#000000" stroke="#000000" points="407.0001,-61.5867 410.5,-71.5867 414.0001,-61.5868 407.0001,-61.5867"/>
</g>
</g>
</svg>
